<svg version="1.1" id="carotte" xmlns="http://www.w3.org/2000/svg" xmlns:xlink="http://www.w3.org/1999/xlink" x="0px" y="0px"
	 viewBox="0 0 20 20" enable-background="new 0 0 20 20" xml:space="preserve">
<g>
	<path fill="currentColor" d="M11.2,5.9c-0.2-0.6-0.3-1.2-0.1-1.8c0.1-0.6,0.4-1,0.9-1.4c0.2-0.2,0.4-0.2,0.6,0c0.5,0.4,0.8,0.9,0.9,1.6
		c0.2-0.2,0.4-0.3,0.6-0.5c0.7-0.5,1.5-0.7,2.3-0.7c0.4,0,0.5,0.2,0.5,0.5c0,0.9-0.2,1.8-0.8,2.5c-0.1,0.1-0.2,0.2-0.3,0.3
		c0,0,0,0,0,0.1c0.5,0.2,1,0.4,1.3,0.8c0.3,0.3,0.3,0.5,0,0.8c-0.8,0.8-1.8,1-2.8,0.7c-0.1,0-0.1,0-0.2-0.1c0,0.2,0,0.4-0.1,0.6
		c-0.1,0.7-0.5,1.3-1.1,1.8c-2.3,1.9-4.8,3.5-7.2,5.2c-0.3,0.2-0.6,0.4-0.9,0.6c-0.4,0.2-0.9,0.2-1.2-0.1c-0.1-0.1-0.1-0.1-0.2-0.2
		c-0.6-0.6-0.7-1.1-0.2-1.8c1.3-1.8,2.5-3.7,3.8-5.5C7.5,8.7,8.1,8,8.6,7.2C9.3,6.4,10.1,6,11.1,6C11.1,6,11.1,5.9,11.2,5.9z
		 M5.3,13.2c-0.5,0.8-1.1,1.6-1.6,2.4c-0.1,0.1,0,0.3,0,0.4c0.3,0.5,0.5,0.5,1,0.2c2.5-1.8,5.1-3.5,7.5-5.4c0.7-0.5,1-1.2,0.9-2
		c-0.1-0.8-0.5-1.4-1.3-1.7c-0.7-0.3-1.5-0.3-2.1,0.3c-0.6,0.6-1.1,1.3-1.7,2c0.1,0.1,0.2,0.2,0.3,0.3c0.3,0.3,0.6,0.6,0.9,0.9
		c0.3,0.3,0.3,0.5,0.1,0.7c-0.2,0.2-0.4,0.2-0.7-0.1c-0.2-0.2-0.4-0.4-0.6-0.6c-0.1-0.1-0.3-0.3-0.5-0.5c-0.2,0.3-0.4,0.6-0.7,0.9
		C7,11,7.1,11.1,7.2,11.2c0.3,0.3,0.5,0.5,0.8,0.8c0.2,0.2,0.2,0.5,0,0.7c-0.2,0.1-0.4,0.1-0.6-0.1c-0.3-0.3-0.6-0.6-0.9-0.9
		c-0.2,0.3-0.4,0.6-0.6,0.9c0.3,0.3,0.5,0.5,0.8,0.8c0.2,0.2,0.2,0.5-0.1,0.7c-0.2,0.1-0.4,0-0.6-0.1C5.7,13.7,5.5,13.5,5.3,13.2z
		 M13.3,6.8c1.4,0,2.7-1.3,2.7-2.7C14.7,4,13.2,5.5,13.3,6.8z M14.1,7.8c0.7,0.5,1.6,0.5,2.2,0C15.7,7.2,14.8,7.2,14.1,7.8z M12.2,6
		c0.6-0.6,0.6-1.7,0-2.2C11.7,4.4,11.7,5.3,12.2,6z"/>
</g>
</svg>
